<?xml version="1.0" encoding="UTF-8" standalone="no"?>
<!-- Created with Inkscape (http://www.inkscape.org/) -->

<svg
   xmlns:dc="http://purl.org/dc/elements/1.1/"
   xmlns:cc="http://creativecommons.org/ns#"
   xmlns:rdf="http://www.w3.org/1999/02/22-rdf-syntax-ns#"
   xmlns:svg="http://www.w3.org/2000/svg"
   xmlns="http://www.w3.org/2000/svg"
   xmlns:sodipodi="http://sodipodi.sourceforge.net/DTD/sodipodi-0.dtd"
   xmlns:inkscape="http://www.inkscape.org/namespaces/inkscape"
   width="744.09448819"
   height="1052.3622047"
   id="svg5411"
   version="1.1"
   inkscape:version="0.48.1 "
   sodipodi:docname="front.svg">
  <defs
     id="defs5413" />
  <sodipodi:namedview
     id="base"
     pagecolor="#ffffff"
     bordercolor="#666666"
     borderopacity="1.0"
     inkscape:pageopacity="0.0"
     inkscape:pageshadow="2"
     inkscape:zoom="0.58652344"
     inkscape:cx="540.85271"
     inkscape:cy="520"
     inkscape:document-units="px"
     inkscape:current-layer="layer1"
     showgrid="false"
     inkscape:window-width="1618"
     inkscape:window-height="1027"
     inkscape:window-x="54"
     inkscape:window-y="-8"
     inkscape:window-maximized="1" />
  <metadata
     id="metadata5416">
    <rdf:RDF>
      <cc:Work
         rdf:about="">
        <dc:format>image/svg+xml</dc:format>
        <dc:type
           rdf:resource="http://purl.org/dc/dcmitype/StillImage" />
        <dc:title></dc:title>
      </cc:Work>
    </rdf:RDF>
  </metadata>
  <g
     inkscape:label="Layer 1"
     inkscape:groupmode="layer"
     id="layer1">
    <rect
       style="fill:#000000;fill-opacity:1;stroke:none"
       id="rect4606"
       width="1780.5889"
       height="544.37946"
       x="-88.887009"
       y="514.79657" />
    <g
       transform="translate(-3.543801,-414.70684)"
       id="g5419"
       inkscape:export-filename="C:\Users\tiago\Dropbox\Tshirts\aeternity\png\front-white.png"
       inkscape:export-xdpi="299.97656"
       inkscape:export-ydpi="299.97656">
      <path
         inkscape:connector-curvature="0"
         style="fill:#e9afaf;fill-opacity:1"
         d="m 318.47107,576.15636 c -0.74269,0.003 -1.48863,0.0205 -2.24702,0.0494 -6.86159,0.2609 -10.94014,1.12176 -17.30953,3.6792 -10.98415,4.41036 -20.80881,13.51412 -26.34703,24.37162 l 9.55605,10.93883 c 0.51663,-1.43218 1.10319,-2.8696 1.80256,-4.29652 3.97633,-8.11283 9.21602,-13.3516 17.28483,-17.30953 6.15796,-3.0206 9.05246,-3.75311 15.97613,-4.02489 4.88005,-0.19157 6.41603,-0.0728 9.67951,0.74077 7.02525,1.75125 13.64048,5.83639 20.32202,12.56855 5.6646,5.70756 9.54892,10.89784 30.54477,40.89098 8.70353,12.43322 16.47215,20.66584 24.79139,26.22356 18.28808,12.21743 41.11794,12.57567 59.26229,0.93832 3.73025,-2.39246 9.57165,-8.06294 12.88955,-12.49447 0.65798,-0.87881 1.45172,-2.11212 2.27172,-3.48166 l -7.80287,-11.0129 -0.51854,-0.0247 -1.28402,2.17295 c -7.19035,12.38081 -20.04637,20.13875 -33.43381,20.14918 -6.04993,0.005 -9.77529,-0.91662 -15.92674,-3.87674 -12.33454,-5.93549 -21.96594,-16.49608 -42.00214,-46.15051 -11.36978,-16.82771 -18.22037,-24.4933 -27.68043,-30.91516 -9.25988,-6.28601 -18.6883,-9.17818 -29.82869,-9.13627 z m -51.26187,46.59498 c -0.0508,0.52598 -0.11342,1.05362 -0.14816,1.58033 l 1.50625,0 -1.35809,-1.58033 z"
         id="path4333" />
      <path
         inkscape:connector-curvature="0"
         style="fill:#b3b3b3;fill-opacity:1"
         d="m 211.94711,576.15636 c -0.74269,0.003 -1.48863,0.0205 -2.24703,0.0494 -6.86158,0.2609 -10.94013,1.12176 -17.30952,3.6792 -10.18052,4.08769 -19.33929,12.21473 -25.03832,22.02582 l 8.6918,12.04999 c 0.4071,-1.02511 0.85693,-2.03936 1.3581,-3.06188 3.97633,-8.11283 9.21602,-13.3516 17.28483,-17.30953 6.15795,-3.0206 9.05246,-3.75311 15.97613,-4.02489 4.88005,-0.19157 6.41602,-0.0728 9.6795,0.74077 7.02525,1.75125 13.64049,5.83639 20.32203,12.56855 5.6646,5.70756 9.54892,10.89784 30.54477,40.89098 8.70353,12.43322 16.47214,20.66584 24.79139,26.22356 18.28808,12.21743 41.11794,12.57567 59.26229,0.93832 3.73024,-2.39246 9.57165,-8.06294 12.88955,-12.49447 0.50624,-0.67614 1.0868,-1.59772 1.70379,-2.59272 l -8.81527,-10.12398 -0.22223,0.37039 c -7.19035,12.38081 -20.04637,20.13875 -33.43381,20.14918 -6.04994,0.005 -9.77529,-0.91662 -15.92674,-3.87674 -12.33454,-5.93549 -21.96595,-16.49608 -42.00215,-46.15051 -11.36977,-16.82771 -18.22036,-24.4933 -27.68042,-30.91516 -9.25989,-6.28601 -18.68831,-9.17818 -29.82869,-9.13627 z m -51.21249,45.87889 c -0.0844,0.76311 -0.14709,1.53157 -0.19754,2.29642 l 1.85194,0 -1.6544,-2.29642 z"
         id="path4335" />
      <path
         style="fill:#b3b3b3;fill-opacity:1;stroke:none"
         d="m 428.34375,579.31273 c -0.74269,0.003 -1.49161,0.0336 -2.25,0.0625 -6.86158,0.26091 -10.94311,1.09882 -17.3125,3.65625 -10.98415,4.41037 -20.80553,13.51751 -26.34375,24.375 L 392,618.34398 c 0.51664,-1.43218 1.11312,-2.85434 1.8125,-4.28125 3.97633,-8.11283 9.21244,-13.35458 17.28125,-17.3125 6.15795,-3.0206 9.04508,-3.75946 15.96875,-4.03125 4.88005,-0.19157 6.42402,-0.0636 9.6875,0.75 7.02525,1.75124 13.63096,5.83035 20.3125,12.5625 5.6646,5.70756 9.53539,10.91312 30.53125,40.90625 5.00906,7.15558 9.73334,12.89876 14.40625,17.5625 l 0,-16.03125 0,-6.4375 c -4.62915,-5.97929 -9.89494,-13.38924 -16.15625,-22.65625 -11.36977,-16.82772 -18.19619,-24.51564 -27.65625,-30.9375 -9.25989,-6.28602 -18.70336,-9.16692 -29.84375,-9.125 z m -51.25,46.59375 c -0.0508,0.52598 -0.12151,1.06704 -0.15625,1.59375 l 1.5,0 -1.34375,-1.59375 z"
         id="path4337"
         inkscape:connector-curvature="0" />
      <path
         style="fill:#ff5883;fill-opacity:1"
         d="m 531.99274,681.59099 c -13.67454,-2.95365 -24.62422,-10.06923 -32.47557,-21.10407 -10.83095,-15.22257 -12.44633,-35.72786 -4.14851,-52.66053 5.46901,-11.16017 15.4887,-20.56666 26.70422,-25.06992 6.36939,-2.55744 10.44307,-3.42518 17.30466,-3.68608 12.13423,-0.4614 22.20049,2.39397 32.0777,9.09905 9.46006,6.42186 16.32377,14.08291 27.69354,30.91063 20.0362,29.65443 29.64493,40.21866 41.97947,46.15415 6.15145,2.96012 9.89453,3.86677 15.94447,3.86206 13.38743,-0.0104 26.2404,-7.75005 33.43075,-20.13086 l 1.27323,-2.19237 13.4761,0.37762 c 0.44635,0.72218 -4.6725,10.492 -7.4197,14.1612 -3.31789,4.43152 -9.16153,10.08933 -12.89177,12.48178 -18.14435,11.63736 -40.96591,11.27401 -59.25399,-0.94342 -8.31925,-5.55772 -16.09586,-13.77666 -24.79939,-26.20988 -20.99585,-29.99313 -24.87075,-35.18193 -30.53534,-40.88949 -6.68154,-6.73216 -13.29527,-10.82554 -20.32052,-12.57679 -3.26348,-0.81353 -4.81249,-0.93184 -9.69255,-0.74027 -6.92366,0.27179 -9.80442,0.99681 -15.96237,4.01741 -8.06882,3.95792 -13.30797,9.20821 -17.2843,17.32104 -5.15594,10.51954 -5.43308,21.11201 -0.84532,32.30849 6.4414,15.72031 25.43604,26.04686 41.60819,22.62053 12.06366,-2.55587 21.76863,-9.78749 33.38615,-22.82614 2.19083,-2.45883 0.20114,-0.14769 4.259,-4.58696 3.43321,5.48635 0.0533,0.12432 3.42281,5.27221 l 4.08351,6.23883 -1.73399,2.17935 c -3.05994,3.84592 -12.83035,13.17271 -16.6727,15.91576 -7.11668,5.08053 -16.04855,9.08623 -23.85663,10.69903 -4.35006,0.89853 -14.58626,0.89724 -18.75115,-0.002 z m 114.92589,-47.48584 0,-5.79409 23.83355,0 23.83356,0 -0.30445,-2.9716 c -0.72288,-7.05557 -4.30136,-14.71921 -9.40772,-20.14728 -5.45214,-5.79568 -11.66405,-9.35452 -19.787,-11.33608 -4.25462,-1.03791 -12.71529,-1.03307 -16.9926,0.01 -4.13624,1.00836 -10.83705,4.1914 -15.25921,7.24842 -4.56058,3.15271 -11.13318,9.77959 -15.45532,15.58291 -1.90389,2.55635 -3.57383,4.65753 -3.71105,4.6693 -0.13716,0.0118 -2.04576,-2.71229 -4.24127,-6.05343 l -3.9919,-6.07481 2.16436,-2.79449 c 1.19037,-1.53697 4.45256,-5.08616 7.24937,-7.88708 19.54082,-19.56975 43.13007,-24.81297 64.14738,-14.25811 15.12112,7.59376 25.41363,21.71319 28.15662,38.62551 0.76446,4.71354 0.91687,16.20982 0.23871,17.28315 l -60.47303,-0.30796 0,-5.79408 z"
         id="path4339"
         inkscape:connector-curvature="0"
         sodipodi:nodetypes="csssssssssccsssssssssssscscsssccccccsssssscscssssccc" />
      <path
         inkscape:connector-curvature="0"
         style="fill:#e9afaf"
         d="m 104.97868,576.15636 c -0.74269,0.003 -1.48864,0.0205 -2.24703,0.0494 -6.861582,0.2609 -10.94013,1.12176 -17.309523,3.6792 -11.215514,4.50326 -21.248406,13.92753 -26.717414,25.0877 -2.142018,4.37104 -3.611819,8.98643 -4.444672,13.67971 l 13.259937,0 c 0.677281,-2.59787 1.649207,-5.1735 2.913729,-7.75348 3.976334,-8.11283 9.216021,-13.3516 17.284834,-17.30953 6.157952,-3.0206 9.052456,-3.75311 15.976129,-4.02489 4.88005,-0.19157 6.41603,-0.0728 9.6795,0.74077 7.02526,1.75125 13.64049,5.86108 20.32203,12.59324 5.6646,5.70756 9.54892,10.87315 30.54477,40.86629 8.70353,12.43322 16.47214,20.66584 24.79139,26.22356 18.28808,12.21743 41.11794,12.57567 59.26229,0.93832 3.73024,-2.39246 9.57165,-8.03825 12.88955,-12.46977 0.82833,-1.10633 1.87174,-2.7925 2.91373,-4.59283 l -8.3708,-9.92643 -0.59263,-0.0247 -1.28401,2.19765 c -7.19035,12.3808 -20.04637,20.11405 -33.43381,20.12448 -6.04994,0.005 -9.79998,-0.91662 -15.95143,-3.87674 -12.33455,-5.93553 -21.94126,-16.49612 -41.97746,-46.15055 -11.36977,-16.82771 -18.22036,-24.4933 -27.68042,-30.91516 -9.25988,-6.28601 -18.6883,-9.17818 -29.82869,-9.13627 z"
         id="path4341" />
      <path
         inkscape:connector-curvature="0"
         style="fill:#b3b3b3;fill-opacity:1"
         d="m 54.0625,635.78904 c 1.19746,7.77903 4.140428,15.29264 8.790573,21.82828 7.851352,11.03483 18.820944,18.15854 32.495488,21.11219 4.164882,0.89961 14.391639,0.89852 18.741699,0 7.80807,-1.61281 16.73639,-5.61138 23.85307,-10.69191 3.84235,-2.74305 13.60758,-12.08082 16.66752,-15.92674 l 1.75317,-2.17295 -4.09897,-6.24723 c -3.36947,-5.14789 0.0256,0.22682 -3.40758,-5.25953 -4.05786,4.43927 -2.08099,2.10931 -4.27183,4.56814 -11.61751,13.03865 -21.32076,20.2848 -33.38442,22.84067 -16.172146,3.42633 -35.165662,-6.89812 -41.607062,-22.61844 -1.025733,-2.50332 -1.781456,-4.98251 -2.321106,-7.43248 l -13.210552,0 z m 104.57325,0 c 0.38581,0.54916 0.83431,1.18279 1.23463,1.75318 l 0,-1.75318 -1.23463,0 z"
         id="path4343" />
      <text
         sodipodi:linespacing="82.999998%"
         id="text4365"
         y="560.27057"
         x="269.34055"
         style="font-size:26px;font-style:normal;font-variant:normal;font-weight:normal;font-stretch:normal;text-align:start;line-height:82.99999833%;letter-spacing:10.90999508px;word-spacing:0px;writing-mode:lr-tb;text-anchor:start;fill:#000000;fill-opacity:1;stroke:none;font-family:Arial;-inkscape-font-specification:Arial"
         xml:space="preserve"><tspan
           style="font-size:26px;font-style:normal;font-variant:normal;font-weight:200;font-stretch:normal;text-align:center;line-height:82.99999833%;letter-spacing:10.90999508px;writing-mode:lr-tb;text-anchor:middle;font-family:Fira Sans ExtraLight;-inkscape-font-specification:'Fira Sans ExtraLight, Ultra-Light'"
           y="560.27057"
           x="274.79553"
           sodipodi:role="line"
           id="tspan4367">[blockchain evolved]</tspan></text>
      <g
         id="g4407">
        <rect
           style="fill:#e9afaf;fill-opacity:1;stroke:none"
           id="rect4395"
           width="10.928932"
           height="37.251263"
           x="77.89949"
           y="584.73981" />
        <rect
           y="584.73981"
           x="98.991371"
           height="57.050251"
           width="10.928932"
           id="rect4397"
           style="fill:#e9afaf;fill-opacity:1;stroke:none" />
        <rect
           style="fill:#e9afaf;fill-opacity:1;stroke:none"
           id="rect4399"
           width="10.928932"
           height="37.251263"
           x="121.033"
           y="584.73981" />
        <rect
           y="-669.36719"
           x="77.89949"
           height="37.251263"
           width="10.928932"
           id="rect4401"
           style="fill:#b3b3b3;fill-opacity:1;stroke:none"
           transform="scale(1,-1)" />
        <rect
           style="fill:#b3b3b3;fill-opacity:1;stroke:none"
           id="rect4403"
           width="10.928932"
           height="20.987804"
           x="98.991371"
           y="-669.36719"
           transform="scale(1,-1)" />
        <rect
           y="-669.36719"
           x="121.033"
           height="37.251263"
           width="10.928932"
           id="rect4405"
           style="fill:#b3b3b3;fill-opacity:1;stroke:none"
           transform="scale(1,-1)" />
      </g>
      <rect
         transform="scale(1,-1)"
         style="fill:#e9afaf;fill-opacity:1;stroke:none"
         id="rect4417"
         width="10.928932"
         height="37.251263"
         x="188.20815"
         y="-669.36719" />
      <rect
         transform="scale(1,-1)"
         y="-669.36719"
         x="209.30003"
         height="57.050251"
         width="10.928932"
         id="rect4419"
         style="fill:#e9afaf;fill-opacity:1;stroke:none" />
      <rect
         transform="scale(1,-1)"
         style="fill:#e9afaf;fill-opacity:1;stroke:none"
         id="rect4421"
         width="10.928932"
         height="37.251263"
         x="230.63455"
         y="-670.07428" />
      <rect
         y="584.73981"
         x="188.20815"
         height="37.251263"
         width="10.928932"
         id="rect4423"
         style="fill:#b3b3b3;fill-opacity:1;stroke:none" />
      <rect
         style="fill:#b3b3b3;fill-opacity:1;stroke:none"
         id="rect4425"
         width="10.928932"
         height="20.987804"
         x="209.30003"
         y="584.73981" />
      <rect
         y="585.4469"
         x="230.63455"
         height="37.251263"
         width="10.928932"
         id="rect4427"
         style="fill:#b3b3b3;fill-opacity:1;stroke:none" />
      <rect
         transform="scale(1,-1)"
         y="-670.53882"
         x="404.46152"
         height="37.251263"
         width="10.928932"
         id="rect4431"
         style="fill:#e9afaf;fill-opacity:1;stroke:none" />
      <rect
         transform="scale(1,-1)"
         style="fill:#e9afaf;fill-opacity:1;stroke:none"
         id="rect4433"
         width="10.928932"
         height="57.050251"
         x="425.55341"
         y="-671.953" />
      <rect
         transform="scale(1,-1)"
         y="-672.6601"
         x="444.88794"
         height="37.251263"
         width="10.928932"
         id="rect4435"
         style="fill:#e9afaf;fill-opacity:1;stroke:none" />
      <rect
         style="fill:#b3b3b3;fill-opacity:1;stroke:none"
         id="rect4437"
         width="10.928932"
         height="37.251263"
         x="404.46152"
         y="585.91144" />
      <rect
         y="587.32562"
         x="425.55341"
         height="20.987804"
         width="10.928932"
         id="rect4439"
         style="fill:#b3b3b3;fill-opacity:1;stroke:none" />
      <rect
         style="fill:#b3b3b3;fill-opacity:1;stroke:none"
         id="rect4441"
         width="10.928932"
         height="37.251263"
         x="444.88794"
         y="588.03271" />
      <rect
         y="584.73981"
         x="295.44574"
         height="37.251263"
         width="10.928932"
         id="rect4445"
         style="fill:#e9afaf;fill-opacity:1;stroke:none" />
      <rect
         style="fill:#e9afaf;fill-opacity:1;stroke:none"
         id="rect4447"
         width="10.928932"
         height="57.050251"
         x="316.53763"
         y="584.73981" />
      <rect
         y="584.73981"
         x="337.16507"
         height="37.251263"
         width="10.928932"
         id="rect4449"
         style="fill:#e9afaf;fill-opacity:1;stroke:none" />
      <rect
         transform="scale(1,-1)"
         style="fill:#b3b3b3;fill-opacity:1;stroke:none"
         id="rect4451"
         width="10.928932"
         height="37.251263"
         x="295.44574"
         y="-669.36719" />
      <rect
         transform="scale(1,-1)"
         y="-669.36719"
         x="316.53763"
         height="20.987804"
         width="10.928932"
         id="rect4453"
         style="fill:#b3b3b3;fill-opacity:1;stroke:none" />
      <rect
         transform="scale(1,-1)"
         style="fill:#b3b3b3;fill-opacity:1;stroke:none"
         id="rect4455"
         width="10.928932"
         height="37.251263"
         x="337.16507"
         y="-669.36719" />
      <text
         xml:space="preserve"
         style="font-size:57.08066559px;font-style:normal;font-variant:normal;font-weight:300;font-stretch:normal;text-align:start;line-height:125%;letter-spacing:0px;word-spacing:0px;writing-mode:lr-tb;text-anchor:start;fill:#000000;fill-opacity:1;stroke:none;font-family:Fira Sans Light;-inkscape-font-specification:'Fira Sans Light, Light'"
         x="490.37283"
         y="732.66333"
         id="text4714"
         sodipodi:linespacing="125%"><tspan
           sodipodi:role="line"
           id="tspan4716"
           x="490.37283"
           y="732.66333"
           style="font-size:57.08066559px;font-style:normal;font-variant:normal;font-weight:300;font-stretch:normal;text-align:start;line-height:125%;writing-mode:lr-tb;text-anchor:start;font-family:Fira Sans Light;-inkscape-font-specification:'Fira Sans Light, Light'">æternity</tspan></text>
    </g>
    <g
       id="g6388">
      <text
         sodipodi:linespacing="125%"
         id="text4536"
         y="900.71863"
         x="497.18774"
         style="font-size:57.08066559px;font-style:normal;font-variant:normal;font-weight:300;font-stretch:normal;text-align:start;line-height:125%;letter-spacing:0px;word-spacing:0px;writing-mode:lr-tb;text-anchor:start;fill:#ffffff;fill-opacity:1;stroke:none;font-family:Fira Sans Light;-inkscape-font-specification:'Fira Sans Light, Light'"
         xml:space="preserve"><tspan
           style="font-size:57.08066559px;font-style:normal;font-variant:normal;font-weight:300;font-stretch:normal;text-align:start;line-height:125%;writing-mode:lr-tb;text-anchor:start;fill:#ffffff;font-family:Fira Sans Light;-inkscape-font-specification:'Fira Sans Light, Light'"
           y="900.71863"
           x="497.18774"
           id="tspan4538"
           sodipodi:role="line">æternity</tspan></text>
      <g
         transform="translate(5.7514462,-99.06039)"
         style="fill:#ffd5d5;fill-opacity:1"
         id="g4673">
        <path
           inkscape:connector-curvature="0"
           style="fill:#ffd5d5;fill-opacity:1"
           d="m 54.0625,903.0754 c 1.19746,7.77903 4.140428,15.29264 8.790573,21.82828 7.851352,11.03483 18.820944,18.15854 32.495488,21.11219 4.164882,0.89961 14.391639,0.89852 18.741699,0 7.80807,-1.61281 16.73639,-5.61138 23.85307,-10.69191 3.84235,-2.74305 13.60758,-12.08082 16.66752,-15.92674 l 1.75317,-2.17295 -4.09897,-6.24723 c -3.36947,-5.14789 0.0256,0.22682 -3.40758,-5.25953 -4.05786,4.43927 -2.08099,2.10931 -4.27183,4.56814 -11.61751,13.03865 -21.32076,20.2848 -33.38442,22.84067 -16.172146,3.42633 -35.165662,-6.89812 -41.607062,-22.61844 -1.025733,-2.50332 -1.781456,-4.98251 -2.321106,-7.43248 l -13.210552,0 z m 104.57325,0 c 0.38581,0.54916 0.83431,1.18279 1.23463,1.75318 l 0,-1.75318 -1.23463,0 z"
           id="path4550" />
        <rect
           transform="scale(1,-1)"
           style="fill:#ffd5d5;fill-opacity:1;stroke:none"
           id="rect4564"
           width="10.928932"
           height="37.251263"
           x="77.89949"
           y="-936.65356" />
        <rect
           transform="scale(1,-1)"
           y="-936.65356"
           x="98.991371"
           height="20.987804"
           width="10.928932"
           id="rect4566"
           style="fill:#ffd5d5;fill-opacity:1;stroke:none" />
        <rect
           transform="scale(1,-1)"
           style="fill:#ffd5d5;fill-opacity:1;stroke:none"
           id="rect4568"
           width="10.928932"
           height="37.251263"
           x="121.033"
           y="-936.65356" />
      </g>
      <g
         transform="translate(5.7514462,-99.06039)"
         style="fill:#ff5883;fill-opacity:1"
         id="g4679">
        <path
           inkscape:connector-curvature="0"
           style="fill:#ff5883;fill-opacity:1"
           d="m 104.97868,843.44272 c -0.74269,0.003 -1.48864,0.0205 -2.24703,0.0494 -6.861582,0.2609 -10.94013,1.12176 -17.309523,3.6792 -11.215514,4.50326 -21.248406,13.92753 -26.717414,25.0877 -2.142018,4.37104 -3.611819,8.98643 -4.444672,13.67971 l 13.259937,0 c 0.677281,-2.59787 1.649207,-5.1735 2.913729,-7.75348 3.976334,-8.11283 9.216021,-13.3516 17.284834,-17.30953 6.157952,-3.0206 9.052456,-3.75311 15.976129,-4.02489 4.88005,-0.19157 6.41603,-0.0728 9.6795,0.74077 7.02526,1.75125 13.64049,5.86108 20.32203,12.59324 5.6646,5.70756 9.54892,10.87315 30.54477,40.86629 8.70353,12.43322 16.47214,20.66584 24.79139,26.22356 18.28808,12.21743 41.11794,12.57567 59.26229,0.93832 3.73024,-2.39246 9.57165,-8.03825 12.88955,-12.46977 0.82833,-1.10633 1.87174,-2.7925 2.91373,-4.59283 l -8.3708,-9.92643 -0.59263,-0.0247 -1.28401,2.19765 c -7.19035,12.3808 -20.04637,20.11405 -33.43381,20.12448 -6.04994,0.005 -9.79998,-0.91662 -15.95143,-3.87674 -12.33455,-5.93553 -21.94126,-16.49612 -41.97746,-46.15055 -11.36977,-16.82771 -18.22036,-24.4933 -27.68042,-30.91516 -9.25988,-6.28601 -18.6883,-9.17818 -29.82869,-9.13627 z"
           id="path4548" />
        <rect
           y="852.02618"
           x="77.89949"
           height="37.251263"
           width="10.928932"
           id="rect4558"
           style="fill:#ff5883;fill-opacity:1;stroke:none" />
        <rect
           style="fill:#ff5883;fill-opacity:1;stroke:none"
           id="rect4560"
           width="10.928932"
           height="57.050251"
           x="98.991371"
           y="852.02618" />
        <rect
           y="852.02618"
           x="121.033"
           height="37.251263"
           width="10.928932"
           id="rect4562"
           style="fill:#ff5883;fill-opacity:1;stroke:none" />
        <rect
           transform="scale(1,-1)"
           style="fill:#ff5883;fill-opacity:1;stroke:none"
           id="rect4570"
           width="10.928932"
           height="37.251263"
           x="188.20815"
           y="-936.65356" />
        <rect
           transform="scale(1,-1)"
           y="-936.65356"
           x="209.30003"
           height="57.050251"
           width="10.928932"
           id="rect4572"
           style="fill:#ff5883;fill-opacity:1;stroke:none" />
        <rect
           transform="scale(1,-1)"
           style="fill:#ff5883;fill-opacity:1;stroke:none"
           id="rect4574"
           width="10.928932"
           height="37.251263"
           x="230.63455"
           y="-937.36066" />
      </g>
      <g
         transform="translate(5.7514462,-99.06039)"
         style="fill:#ffd5d5;fill-opacity:1"
         id="g4661">
        <path
           style="fill:#ffd5d5;fill-opacity:1;stroke:none"
           d="m 428.34375,846.59909 c -0.74269,0.003 -1.49161,0.0336 -2.25,0.0625 -6.86158,0.26091 -10.94311,1.09882 -17.3125,3.65625 -10.98415,4.41037 -20.80553,13.51751 -26.34375,24.375 L 392,885.63034 c 0.51664,-1.43218 1.11312,-2.85434 1.8125,-4.28125 3.97633,-8.11283 9.21244,-13.35458 17.28125,-17.3125 6.15795,-3.0206 9.04508,-3.75946 15.96875,-4.03125 4.88005,-0.19157 6.42402,-0.0636 9.6875,0.75 7.02525,1.75124 13.63096,5.83035 20.3125,12.5625 5.6646,5.70756 9.53539,10.91312 30.53125,40.90625 5.00906,7.15558 9.73334,12.89876 14.40625,17.5625 l 0,-16.03125 0,-6.4375 c -4.62915,-5.97929 -9.89494,-13.38924 -16.15625,-22.65625 -11.36977,-16.82772 -18.19619,-24.51564 -27.65625,-30.9375 -9.25989,-6.28602 -18.70336,-9.16692 -29.84375,-9.125 z m -51.25,46.59375 c -0.0508,0.52598 -0.12151,1.06704 -0.15625,1.59375 l 1.5,0 -1.34375,-1.59375 z"
           id="path4544"
           inkscape:connector-curvature="0" />
        <rect
           style="fill:#ffd5d5;fill-opacity:1;stroke:none"
           id="rect4588"
           width="10.928932"
           height="37.251263"
           x="404.46152"
           y="853.19781" />
        <rect
           y="854.612"
           x="425.55341"
           height="20.987804"
           width="10.928932"
           id="rect4590"
           style="fill:#ffd5d5;fill-opacity:1;stroke:none" />
        <rect
           style="fill:#ffd5d5;fill-opacity:1;stroke:none"
           id="rect4592"
           width="10.928932"
           height="37.251263"
           x="444.88794"
           y="855.31909" />
      </g>
      <g
         transform="translate(5.7514462,-99.06039)"
         style="fill:#ff5883;fill-opacity:1"
         id="g4652">
        <path
           inkscape:connector-curvature="0"
           style="fill:#ff5883;fill-opacity:1"
           d="m 318.47107,843.44272 c -0.74269,0.003 -1.48863,0.0205 -2.24702,0.0494 -6.86159,0.2609 -10.94014,1.12176 -17.30953,3.6792 -10.98415,4.41036 -20.80881,13.51412 -26.34703,24.37162 l 9.55605,10.93883 c 0.51663,-1.43218 1.10319,-2.8696 1.80256,-4.29652 3.97633,-8.11283 9.21602,-13.3516 17.28483,-17.30953 6.15796,-3.0206 9.05246,-3.75311 15.97613,-4.02489 4.88005,-0.19157 6.41603,-0.0728 9.67951,0.74077 7.02525,1.75125 13.64048,5.83639 20.32202,12.56855 5.6646,5.70756 9.54892,10.89784 30.54477,40.89098 8.70353,12.43322 16.47215,20.66584 24.79139,26.22356 18.28808,12.21743 41.11794,12.57567 59.26229,0.93832 3.73025,-2.39246 9.57165,-8.06294 12.88955,-12.49447 0.65798,-0.87881 1.45172,-2.11212 2.27172,-3.48166 l -7.80287,-11.0129 -0.51854,-0.0247 -1.28402,2.17295 c -7.19035,12.38081 -20.04637,20.13875 -33.43381,20.14918 -6.04993,0.005 -9.77529,-0.91662 -15.92674,-3.87674 -12.33454,-5.93549 -21.96594,-16.49608 -42.00214,-46.15051 -11.36978,-16.82771 -18.22037,-24.4933 -27.68043,-30.91516 -9.25988,-6.28601 -18.6883,-9.17818 -29.82869,-9.13627 z M 267.2092,890.0377 c -0.0508,0.52598 -0.11342,1.05362 -0.14816,1.58033 l 1.50625,0 -1.35809,-1.58033 z"
           id="path4540" />
        <rect
           transform="scale(1,-1)"
           y="-937.8252"
           x="404.46152"
           height="37.251263"
           width="10.928932"
           id="rect4582"
           style="fill:#ff5883;fill-opacity:1;stroke:none" />
        <rect
           transform="scale(1,-1)"
           style="fill:#ff5883;fill-opacity:1;stroke:none"
           id="rect4584"
           width="10.928932"
           height="57.050251"
           x="425.55341"
           y="-939.23938" />
        <rect
           transform="scale(1,-1)"
           y="-939.94647"
           x="444.88794"
           height="37.251263"
           width="10.928932"
           id="rect4586"
           style="fill:#ff5883;fill-opacity:1;stroke:none" />
        <rect
           y="852.02618"
           x="295.44574"
           height="37.251263"
           width="10.928932"
           id="rect4594"
           style="fill:#ff5883;fill-opacity:1;stroke:none" />
        <rect
           style="fill:#ff5883;fill-opacity:1;stroke:none"
           id="rect4596"
           width="10.928932"
           height="57.050251"
           x="316.53763"
           y="852.02618" />
        <rect
           y="852.02618"
           x="337.16507"
           height="37.251263"
           width="10.928932"
           id="rect4598"
           style="fill:#ff5883;fill-opacity:1;stroke:none" />
      </g>
      <g
         transform="translate(5.7514462,-99.06039)"
         style="fill:#ffd5d5;fill-opacity:1"
         id="g4643">
        <path
           inkscape:connector-curvature="0"
           style="fill:#ffd5d5;fill-opacity:1"
           d="m 211.94711,843.44272 c -0.74269,0.003 -1.48863,0.0205 -2.24703,0.0494 -6.86158,0.2609 -10.94013,1.12176 -17.30952,3.6792 -10.18052,4.08769 -19.33929,12.21473 -25.03832,22.02582 l 8.6918,12.04999 c 0.4071,-1.02511 0.85693,-2.03936 1.3581,-3.06188 3.97633,-8.11283 9.21602,-13.3516 17.28483,-17.30953 6.15795,-3.0206 9.05246,-3.75311 15.97613,-4.02489 4.88005,-0.19157 6.41602,-0.0728 9.6795,0.74077 7.02525,1.75125 13.64049,5.83639 20.32203,12.56855 5.6646,5.70756 9.54892,10.89784 30.54477,40.89098 8.70353,12.43322 16.47214,20.66584 24.79139,26.22356 18.28808,12.21743 41.11794,12.57567 59.26229,0.93832 3.73024,-2.39246 9.57165,-8.06294 12.88955,-12.49447 0.50624,-0.67614 1.0868,-1.59772 1.70379,-2.59272 l -8.81527,-10.12398 -0.22223,0.37039 c -7.19035,12.38081 -20.04637,20.13875 -33.43381,20.14918 -6.04994,0.005 -9.77529,-0.91662 -15.92674,-3.87674 -12.33454,-5.93549 -21.96595,-16.49608 -42.00215,-46.15051 -11.36977,-16.82771 -18.22036,-24.4933 -27.68042,-30.91516 -9.25989,-6.28601 -18.68831,-9.17818 -29.82869,-9.13627 z m -51.21249,45.87889 c -0.0844,0.76311 -0.14709,1.53157 -0.19754,2.29642 l 1.85194,0 -1.6544,-2.29642 z"
           id="path4542" />
        <rect
           y="852.02618"
           x="188.20815"
           height="37.251263"
           width="10.928932"
           id="rect4576"
           style="fill:#ffd5d5;fill-opacity:1;stroke:none" />
        <rect
           style="fill:#ffd5d5;fill-opacity:1;stroke:none"
           id="rect4578"
           width="10.928932"
           height="20.987804"
           x="209.30003"
           y="852.02618" />
        <rect
           y="852.73328"
           x="230.63455"
           height="37.251263"
           width="10.928932"
           id="rect4580"
           style="fill:#ffd5d5;fill-opacity:1;stroke:none" />
        <rect
           transform="scale(1,-1)"
           style="fill:#ffd5d5;fill-opacity:1;stroke:none"
           id="rect4600"
           width="10.928932"
           height="37.251263"
           x="295.44574"
           y="-936.65356" />
        <rect
           transform="scale(1,-1)"
           y="-936.65356"
           x="316.53763"
           height="20.987804"
           width="10.928932"
           id="rect4602"
           style="fill:#ffd5d5;fill-opacity:1;stroke:none" />
        <rect
           transform="scale(1,-1)"
           style="fill:#ffd5d5;fill-opacity:1;stroke:none"
           id="rect4604"
           width="10.928932"
           height="37.251263"
           x="337.16507"
           y="-936.65356" />
      </g>
      <path
         sodipodi:nodetypes="csssssssssccsssssssssssscscsssccccccsssssscscssssccc"
         inkscape:connector-curvature="0"
         id="path4546"
         d="m 537.74419,849.81696 c -13.67454,-2.95365 -24.62422,-10.06923 -32.47557,-21.10407 -10.83095,-15.22257 -12.44633,-35.72786 -4.14851,-52.66053 5.46901,-11.16017 15.4887,-20.56666 26.70422,-25.06992 6.36939,-2.55744 10.44307,-3.42518 17.30466,-3.68608 12.13423,-0.4614 22.20049,2.39397 32.0777,9.09905 9.46006,6.42186 16.32377,14.08291 27.69354,30.91063 20.0362,29.65443 29.64493,40.21866 41.97947,46.15415 6.15145,2.96012 9.89453,3.86677 15.94447,3.86206 13.38743,-0.0104 26.2404,-7.75005 33.43075,-20.13086 l 1.27323,-2.19237 13.4761,0.37762 c 0.44635,0.72218 -4.6725,10.492 -7.4197,14.1612 -3.31789,4.43152 -9.16153,10.08933 -12.89177,12.48178 -18.14435,11.63736 -40.96591,11.27401 -59.25399,-0.94342 -8.31925,-5.55772 -16.09586,-13.77666 -24.79939,-26.20988 -20.99585,-29.99313 -24.87075,-35.18193 -30.53534,-40.88949 -6.68154,-6.73216 -13.29527,-10.82554 -20.32052,-12.57679 -3.26348,-0.81353 -4.81249,-0.93184 -9.69255,-0.74027 -6.92366,0.27179 -9.80442,0.99681 -15.96237,4.01741 -8.06882,3.95792 -13.30797,9.20821 -17.2843,17.32104 -5.15594,10.51954 -5.43308,21.11201 -0.84532,32.30849 6.4414,15.72031 25.43604,26.04686 41.60819,22.62053 12.06366,-2.55587 21.76863,-9.78749 33.38615,-22.82614 2.19083,-2.45883 0.20114,-0.14769 4.259,-4.58696 3.43321,5.48635 0.0533,0.12432 3.42281,5.27221 l 4.08351,6.23883 -1.73399,2.17935 c -3.05994,3.84592 -12.83035,13.17271 -16.6727,15.91576 -7.11668,5.08053 -16.04855,9.08623 -23.85663,10.69903 -4.35006,0.89853 -14.58626,0.89724 -18.75115,-0.002 z m 114.92589,-47.48584 0,-5.79409 23.83355,0 23.83356,0 -0.30445,-2.9716 c -0.72288,-7.05557 -4.30136,-14.71921 -9.40772,-20.14728 -5.45214,-5.79568 -11.66405,-9.35452 -19.787,-11.33608 -4.25462,-1.03791 -12.71529,-1.03307 -16.9926,0.01 -4.13624,1.00836 -10.83705,4.1914 -15.25921,7.24842 -4.56058,3.15271 -11.13318,9.77959 -15.45532,15.58291 -1.90389,2.55635 -3.57383,4.65753 -3.71105,4.6693 -0.13716,0.0118 -2.04576,-2.71229 -4.24127,-6.05343 l -3.9919,-6.07481 2.16436,-2.79449 c 1.19037,-1.53697 4.45256,-5.08616 7.24937,-7.88708 19.54082,-19.56975 43.13007,-24.81297 64.14738,-14.25811 15.12112,7.59376 25.41363,21.71319 28.15662,38.62551 0.76446,4.71354 0.91687,16.20982 0.23871,17.28315 l -60.47303,-0.30796 0,-5.79408 z"
         style="fill:#ff2c61;fill-opacity:1" />
      <text
         xml:space="preserve"
         style="font-size:26px;font-style:normal;font-variant:normal;font-weight:300;font-stretch:normal;text-align:start;line-height:82.99999833%;letter-spacing:10.90999508px;word-spacing:0px;writing-mode:lr-tb;text-anchor:start;fill:#ffffff;fill-opacity:1;stroke:none;font-family:Fira Sans Light;-inkscape-font-specification:'Fira Sans Light, Light'"
         x="275.09198"
         y="726.45496"
         id="text5364"
         sodipodi:linespacing="82.999998%"><tspan
           id="tspan5366"
           sodipodi:role="line"
           x="280.54697"
           y="726.45496"
           style="font-size:26px;font-style:normal;font-variant:normal;font-weight:300;font-stretch:normal;text-align:center;line-height:82.99999833%;letter-spacing:10.90999508px;writing-mode:lr-tb;text-anchor:middle;fill:#ffffff;font-family:Fira Sans Light;-inkscape-font-specification:'Fira Sans Light, Light'">[blockchain evolved]</tspan></text>
    </g>
    <g
       id="g6586"
       inkscape:export-filename="C:\Users\tiago\Dropbox\Tshirts\aeternity\png\front-dark.png"
       inkscape:export-xdpi="300"
       inkscape:export-ydpi="300">
      <text
         xml:space="preserve"
         style="font-size:57.08066559px;font-style:normal;font-variant:normal;font-weight:300;font-stretch:normal;text-align:start;line-height:125%;letter-spacing:0px;word-spacing:0px;writing-mode:lr-tb;text-anchor:start;fill:#ffffff;fill-opacity:1;stroke:none;font-family:Fira Sans Light;-inkscape-font-specification:'Fira Sans Light, Light'"
         x="1325.7992"
         y="900.71863"
         id="text6431"
         sodipodi:linespacing="125%"><tspan
           sodipodi:role="line"
           id="tspan6433"
           x="1325.7992"
           y="900.71863"
           style="font-size:57.08066559px;font-style:normal;font-variant:normal;font-weight:300;font-stretch:normal;text-align:start;line-height:125%;writing-mode:lr-tb;text-anchor:start;fill:#ffffff;font-family:Fira Sans Light;-inkscape-font-specification:'Fira Sans Light, Light'">æternity</tspan></text>
      <g
         style="fill:#e9afdd"
         id="g6568">
        <g
           transform="translate(834.36284,-99.06039)"
           style="fill:#e9afdd;fill-opacity:1"
           id="g6445">
          <path
             inkscape:connector-curvature="0"
             style="fill:#e9afdd;fill-opacity:1"
             d="m 104.97868,843.44272 c -0.74269,0.003 -1.48864,0.0205 -2.24703,0.0494 -6.861582,0.2609 -10.94013,1.12176 -17.309523,3.6792 -11.215514,4.50326 -21.248406,13.92753 -26.717414,25.0877 -2.142018,4.37104 -3.611819,8.98643 -4.444672,13.67971 l 13.259937,0 c 0.677281,-2.59787 1.649207,-5.1735 2.913729,-7.75348 3.976334,-8.11283 9.216021,-13.3516 17.284834,-17.30953 6.157952,-3.0206 9.052456,-3.75311 15.976129,-4.02489 4.88005,-0.19157 6.41603,-0.0728 9.6795,0.74077 7.02526,1.75125 13.64049,5.86108 20.32203,12.59324 5.6646,5.70756 9.54892,10.87315 30.54477,40.86629 8.70353,12.43322 16.47214,20.66584 24.79139,26.22356 18.28808,12.21743 41.11794,12.57567 59.26229,0.93832 3.73024,-2.39246 9.57165,-8.03825 12.88955,-12.46977 0.82833,-1.10633 1.87174,-2.7925 2.91373,-4.59283 l -8.3708,-9.92643 -0.59263,-0.0247 -1.28401,2.19765 c -7.19035,12.3808 -20.04637,20.11405 -33.43381,20.12448 -6.04994,0.005 -9.79998,-0.91662 -15.95143,-3.87674 -12.33455,-5.93553 -21.94126,-16.49612 -41.97746,-46.15055 -11.36977,-16.82771 -18.22036,-24.4933 -27.68042,-30.91516 -9.25988,-6.28601 -18.6883,-9.17818 -29.82869,-9.13627 z"
             id="path6447" />
          <rect
             y="852.02618"
             x="77.89949"
             height="37.251263"
             width="10.928932"
             id="rect6449"
             style="fill:#e9afdd;fill-opacity:1;stroke:none" />
          <rect
             style="fill:#e9afdd;fill-opacity:1;stroke:none"
             id="rect6451"
             width="10.928932"
             height="57.050251"
             x="98.991371"
             y="852.02618" />
          <rect
             y="852.02618"
             x="121.033"
             height="37.251263"
             width="10.928932"
             id="rect6453"
             style="fill:#e9afdd;fill-opacity:1;stroke:none" />
          <rect
             transform="scale(1,-1)"
             style="fill:#e9afdd;fill-opacity:1;stroke:none"
             id="rect6455"
             width="10.928932"
             height="37.251263"
             x="188.20815"
             y="-936.65356" />
          <rect
             transform="scale(1,-1)"
             y="-936.65356"
             x="209.30003"
             height="57.050251"
             width="10.928932"
             id="rect6457"
             style="fill:#e9afdd;fill-opacity:1;stroke:none" />
          <rect
             transform="scale(1,-1)"
             style="fill:#e9afdd;fill-opacity:1;stroke:none"
             id="rect6459"
             width="10.928932"
             height="37.251263"
             x="230.63455"
             y="-937.36066" />
        </g>
        <g
           transform="translate(834.36284,-99.06039)"
           style="fill:#e9afdd;fill-opacity:1"
           id="g6471">
          <path
             inkscape:connector-curvature="0"
             style="fill:#e9afdd;fill-opacity:1"
             d="m 318.47107,843.44272 c -0.74269,0.003 -1.48863,0.0205 -2.24702,0.0494 -6.86159,0.2609 -10.94014,1.12176 -17.30953,3.6792 -10.98415,4.41036 -20.80881,13.51412 -26.34703,24.37162 l 9.55605,10.93883 c 0.51663,-1.43218 1.10319,-2.8696 1.80256,-4.29652 3.97633,-8.11283 9.21602,-13.3516 17.28483,-17.30953 6.15796,-3.0206 9.05246,-3.75311 15.97613,-4.02489 4.88005,-0.19157 6.41603,-0.0728 9.67951,0.74077 7.02525,1.75125 13.64048,5.83639 20.32202,12.56855 5.6646,5.70756 9.54892,10.89784 30.54477,40.89098 8.70353,12.43322 16.47215,20.66584 24.79139,26.22356 18.28808,12.21743 41.11794,12.57567 59.26229,0.93832 3.73025,-2.39246 9.57165,-8.06294 12.88955,-12.49447 0.65798,-0.87881 1.45172,-2.11212 2.27172,-3.48166 l -7.80287,-11.0129 -0.51854,-0.0247 -1.28402,2.17295 c -7.19035,12.38081 -20.04637,20.13875 -33.43381,20.14918 -6.04993,0.005 -9.77529,-0.91662 -15.92674,-3.87674 -12.33454,-5.93549 -21.96594,-16.49608 -42.00214,-46.15051 -11.36978,-16.82771 -18.22037,-24.4933 -27.68043,-30.91516 -9.25988,-6.28601 -18.6883,-9.17818 -29.82869,-9.13627 z M 267.2092,890.0377 c -0.0508,0.52598 -0.11342,1.05362 -0.14816,1.58033 l 1.50625,0 -1.35809,-1.58033 z"
             id="path6473" />
          <rect
             transform="scale(1,-1)"
             y="-937.8252"
             x="404.46152"
             height="37.251263"
             width="10.928932"
             id="rect6475"
             style="fill:#e9afdd;fill-opacity:1;stroke:none" />
          <rect
             transform="scale(1,-1)"
             style="fill:#e9afdd;fill-opacity:1;stroke:none"
             id="rect6477"
             width="10.928932"
             height="57.050251"
             x="425.55341"
             y="-939.23938" />
          <rect
             transform="scale(1,-1)"
             y="-939.94647"
             x="444.88794"
             height="37.251263"
             width="10.928932"
             id="rect6479"
             style="fill:#e9afdd;fill-opacity:1;stroke:none" />
          <rect
             y="852.02618"
             x="295.44574"
             height="37.251263"
             width="10.928932"
             id="rect6481"
             style="fill:#e9afdd;fill-opacity:1;stroke:none" />
          <rect
             style="fill:#e9afdd;fill-opacity:1;stroke:none"
             id="rect6483"
             width="10.928932"
             height="57.050251"
             x="316.53763"
             y="852.02618" />
          <rect
             y="852.02618"
             x="337.16507"
             height="37.251263"
             width="10.928932"
             id="rect6485"
             style="fill:#e9afdd;fill-opacity:1;stroke:none" />
        </g>
      </g>
      <g
         style="fill:#ff80b2"
         id="g6548">
        <g
           transform="translate(834.36284,-99.06039)"
           style="fill:#ff80b2;fill-opacity:1"
           id="g6435">
          <path
             inkscape:connector-curvature="0"
             style="fill:#ff80b2;fill-opacity:1"
             d="m 54.0625,903.0754 c 1.19746,7.77903 4.140428,15.29264 8.790573,21.82828 7.851352,11.03483 18.820944,18.15854 32.495488,21.11219 4.164882,0.89961 14.391639,0.89852 18.741699,0 7.80807,-1.61281 16.73639,-5.61138 23.85307,-10.69191 3.84235,-2.74305 13.60758,-12.08082 16.66752,-15.92674 l 1.75317,-2.17295 -4.09897,-6.24723 c -3.36947,-5.14789 0.0256,0.22682 -3.40758,-5.25953 -4.05786,4.43927 -2.08099,2.10931 -4.27183,4.56814 -11.61751,13.03865 -21.32076,20.2848 -33.38442,22.84067 -16.172146,3.42633 -35.165662,-6.89812 -41.607062,-22.61844 -1.025733,-2.50332 -1.781456,-4.98251 -2.321106,-7.43248 l -13.210552,0 z m 104.57325,0 c 0.38581,0.54916 0.83431,1.18279 1.23463,1.75318 l 0,-1.75318 -1.23463,0 z"
             id="path6437" />
          <rect
             transform="scale(1,-1)"
             style="fill:#ff80b2;fill-opacity:1;stroke:none"
             id="rect6439"
             width="10.928932"
             height="37.251263"
             x="77.89949"
             y="-936.65356" />
          <rect
             transform="scale(1,-1)"
             y="-936.65356"
             x="98.991371"
             height="20.987804"
             width="10.928932"
             id="rect6441"
             style="fill:#ff80b2;fill-opacity:1;stroke:none" />
          <rect
             transform="scale(1,-1)"
             style="fill:#ff80b2;fill-opacity:1;stroke:none"
             id="rect6443"
             width="10.928932"
             height="37.251263"
             x="121.033"
             y="-936.65356" />
        </g>
        <g
           transform="translate(834.36284,-99.06039)"
           style="fill:#ff80b2;fill-opacity:1"
           id="g6461">
          <path
             style="fill:#ff80b2;fill-opacity:1;stroke:none"
             d="m 428.34375,846.59909 c -0.74269,0.003 -1.49161,0.0336 -2.25,0.0625 -6.86158,0.26091 -10.94311,1.09882 -17.3125,3.65625 -10.98415,4.41037 -20.80553,13.51751 -26.34375,24.375 L 392,885.63034 c 0.51664,-1.43218 1.11312,-2.85434 1.8125,-4.28125 3.97633,-8.11283 9.21244,-13.35458 17.28125,-17.3125 6.15795,-3.0206 9.04508,-3.75946 15.96875,-4.03125 4.88005,-0.19157 6.42402,-0.0636 9.6875,0.75 7.02525,1.75124 13.63096,5.83035 20.3125,12.5625 5.6646,5.70756 9.53539,10.91312 30.53125,40.90625 5.00906,7.15558 9.73334,12.89876 14.40625,17.5625 l 0,-16.03125 0,-6.4375 c -4.62915,-5.97929 -9.89494,-13.38924 -16.15625,-22.65625 -11.36977,-16.82772 -18.19619,-24.51564 -27.65625,-30.9375 -9.25989,-6.28602 -18.70336,-9.16692 -29.84375,-9.125 z m -51.25,46.59375 c -0.0508,0.52598 -0.12151,1.06704 -0.15625,1.59375 l 1.5,0 -1.34375,-1.59375 z"
             id="path6463"
             inkscape:connector-curvature="0" />
          <rect
             style="fill:#ff80b2;fill-opacity:1;stroke:none"
             id="rect6465"
             width="10.928932"
             height="37.251263"
             x="404.46152"
             y="853.19781" />
          <rect
             y="854.612"
             x="425.55341"
             height="20.987804"
             width="10.928932"
             id="rect6467"
             style="fill:#ff80b2;fill-opacity:1;stroke:none" />
          <rect
             style="fill:#ff80b2;fill-opacity:1;stroke:none"
             id="rect6469"
             width="10.928932"
             height="37.251263"
             x="444.88794"
             y="855.31909" />
        </g>
        <g
           transform="translate(834.36284,-99.06039)"
           style="fill:#ff80b2;fill-opacity:1"
           id="g6487">
          <path
             inkscape:connector-curvature="0"
             style="fill:#ff80b2;fill-opacity:1"
             d="m 211.94711,843.44272 c -0.74269,0.003 -1.48863,0.0205 -2.24703,0.0494 -6.86158,0.2609 -10.94013,1.12176 -17.30952,3.6792 -10.18052,4.08769 -19.33929,12.21473 -25.03832,22.02582 l 8.6918,12.04999 c 0.4071,-1.02511 0.85693,-2.03936 1.3581,-3.06188 3.97633,-8.11283 9.21602,-13.3516 17.28483,-17.30953 6.15795,-3.0206 9.05246,-3.75311 15.97613,-4.02489 4.88005,-0.19157 6.41602,-0.0728 9.6795,0.74077 7.02525,1.75125 13.64049,5.83639 20.32203,12.56855 5.6646,5.70756 9.54892,10.89784 30.54477,40.89098 8.70353,12.43322 16.47214,20.66584 24.79139,26.22356 18.28808,12.21743 41.11794,12.57567 59.26229,0.93832 3.73024,-2.39246 9.57165,-8.06294 12.88955,-12.49447 0.50624,-0.67614 1.0868,-1.59772 1.70379,-2.59272 l -8.81527,-10.12398 -0.22223,0.37039 c -7.19035,12.38081 -20.04637,20.13875 -33.43381,20.14918 -6.04994,0.005 -9.77529,-0.91662 -15.92674,-3.87674 -12.33454,-5.93549 -21.96595,-16.49608 -42.00215,-46.15051 -11.36977,-16.82771 -18.22036,-24.4933 -27.68042,-30.91516 -9.25989,-6.28601 -18.68831,-9.17818 -29.82869,-9.13627 z m -51.21249,45.87889 c -0.0844,0.76311 -0.14709,1.53157 -0.19754,2.29642 l 1.85194,0 -1.6544,-2.29642 z"
             id="path6489" />
          <rect
             y="852.02618"
             x="188.20815"
             height="37.251263"
             width="10.928932"
             id="rect6491"
             style="fill:#ff80b2;fill-opacity:1;stroke:none" />
          <rect
             style="fill:#ff80b2;fill-opacity:1;stroke:none"
             id="rect6493"
             width="10.928932"
             height="20.987804"
             x="209.30003"
             y="852.02618" />
          <rect
             y="852.73328"
             x="230.63455"
             height="37.251263"
             width="10.928932"
             id="rect6495"
             style="fill:#ff80b2;fill-opacity:1;stroke:none" />
          <rect
             transform="scale(1,-1)"
             style="fill:#ff80b2;fill-opacity:1;stroke:none"
             id="rect6497"
             width="10.928932"
             height="37.251263"
             x="295.44574"
             y="-936.65356" />
          <rect
             transform="scale(1,-1)"
             y="-936.65356"
             x="316.53763"
             height="20.987804"
             width="10.928932"
             id="rect6499"
             style="fill:#ff80b2;fill-opacity:1;stroke:none" />
          <rect
             transform="scale(1,-1)"
             style="fill:#ff80b2;fill-opacity:1;stroke:none"
             id="rect6501"
             width="10.928932"
             height="37.251263"
             x="337.16507"
             y="-936.65356" />
        </g>
      </g>
      <path
         style="fill:#ff2c61;fill-opacity:1"
         d="m 1366.3556,849.81696 c -13.6746,-2.95365 -24.6242,-10.06923 -32.4756,-21.10407 -10.8309,-15.22257 -12.4463,-35.72786 -4.1485,-52.66053 5.469,-11.16017 15.4887,-20.56666 26.7042,-25.06992 6.3694,-2.55744 10.4431,-3.42518 17.3047,-3.68608 12.1342,-0.4614 22.2005,2.39397 32.0777,9.09905 9.46,6.42186 16.3238,14.08291 27.6935,30.91063 20.0362,29.65443 29.645,40.21866 41.9795,46.15415 6.1514,2.96012 9.8945,3.86677 15.9445,3.86206 13.3874,-0.0104 26.2404,-7.75005 33.4307,-20.13086 l 1.2732,-2.19237 13.4761,0.37762 c 0.4464,0.72218 -4.6725,10.492 -7.4197,14.1612 -3.3178,4.43152 -9.1615,10.08933 -12.8917,12.48178 -18.1444,11.63736 -40.9659,11.27401 -59.254,-0.94342 -8.3193,-5.55772 -16.0959,-13.77666 -24.7994,-26.20988 -20.9959,-29.99313 -24.8708,-35.18193 -30.5353,-40.88949 -6.6816,-6.73216 -13.2953,-10.82554 -20.3206,-12.57679 -3.2634,-0.81353 -4.8125,-0.93184 -9.6925,-0.74027 -6.9237,0.27179 -9.8044,0.99681 -15.9624,4.01741 -8.0688,3.95792 -13.308,9.20821 -17.2843,17.32104 -5.1559,10.51954 -5.4331,21.11201 -0.8453,32.30849 6.4414,15.72031 25.436,26.04686 41.6082,22.62053 12.0636,-2.55587 21.7686,-9.78749 33.3861,-22.82614 2.1909,-2.45883 0.2012,-0.14769 4.259,-4.58696 3.4332,5.48635 0.053,0.12432 3.4228,5.27221 l 4.0836,6.23883 -1.734,2.17935 c -3.06,3.84592 -12.8304,13.17271 -16.6727,15.91576 -7.1167,5.08053 -16.0486,9.08623 -23.8567,10.69903 -4.35,0.89853 -14.5862,0.89724 -18.7511,-0.002 z m 114.9259,-47.48584 0,-5.79409 23.8335,0 23.8336,0 -0.3045,-2.9716 c -0.7229,-7.05557 -4.3013,-14.71921 -9.4077,-20.14728 -5.4521,-5.79568 -11.664,-9.35452 -19.787,-11.33608 -4.2546,-1.03791 -12.7153,-1.03307 -16.9926,0.01 -4.1362,1.00836 -10.837,4.1914 -15.2592,7.24842 -4.5606,3.15271 -11.1332,9.77959 -15.4553,15.58291 -1.9039,2.55635 -3.5739,4.65753 -3.7111,4.6693 -0.1371,0.0118 -2.0457,-2.71229 -4.2412,-6.05343 l -3.9919,-6.07481 2.1643,-2.79449 c 1.1904,-1.53697 4.4526,-5.08616 7.2494,-7.88708 19.5408,-19.56975 43.1301,-24.81297 64.1474,-14.25811 15.1211,7.59376 25.4136,21.71319 28.1566,38.62551 0.7644,4.71354 0.9169,16.20982 0.2387,17.28315 l -60.473,-0.30796 0,-5.79408 z"
         id="path6503"
         inkscape:connector-curvature="0"
         sodipodi:nodetypes="csssssssssccsssssssssssscscsssccccccsssssscscssssccc" />
      <text
         sodipodi:linespacing="82.999998%"
         id="text6505"
         y="726.45496"
         x="1103.7034"
         style="font-size:26px;font-style:normal;font-variant:normal;font-weight:300;font-stretch:normal;text-align:start;line-height:82.99999833%;letter-spacing:10.90999508px;word-spacing:0px;writing-mode:lr-tb;text-anchor:start;fill:#ffffff;fill-opacity:1;stroke:none;font-family:Fira Sans Light;-inkscape-font-specification:'Fira Sans Light, Light'"
         xml:space="preserve"><tspan
           style="font-size:26px;font-style:normal;font-variant:normal;font-weight:300;font-stretch:normal;text-align:center;line-height:82.99999833%;letter-spacing:10.90999508px;writing-mode:lr-tb;text-anchor:middle;fill:#ffffff;font-family:Fira Sans Light;-inkscape-font-specification:'Fira Sans Light, Light'"
           y="726.45496"
           x="1109.1583"
           sodipodi:role="line"
           id="tspan6507">[blockchain evolved]</tspan></text>
    </g>
  </g>
</svg>
